solid ASCII
  facet normal 1.000000e+00 0.000000e+00 0.000000e+00
    outer loop
      vertex   -4.600000e+01 6.832454e+00 -4.950000e+01
      vertex   -4.600000e+01 1.783245e+01 -4.950000e+01
      vertex   -4.600000e+01 6.832454e+00 -4.650000e+01
    endloop
  endfacet
  facet normal 1.000000e+00 -0.000000e+00 0.000000e+00
    outer loop
      vertex   -4.600000e+01 6.832454e+00 -4.650000e+01
      vertex   -4.600000e+01 1.783245e+01 -4.950000e+01
      vertex   -4.600000e+01 1.783245e+01 -4.650000e+01
    endloop
  endfacet
  facet normal 0.000000e+00 -1.000000e+00 0.000000e+00
    outer loop
      vertex   -4.600000e+01 6.832454e+00 -4.950000e+01
      vertex   -4.600000e+01 6.832454e+00 -4.650000e+01
      vertex   -4.750000e+01 6.832454e+00 -4.950000e+01
    endloop
  endfacet
  facet normal 0.000000e+00 -1.000000e+00 0.000000e+00
    outer loop
      vertex   -4.750000e+01 6.832454e+00 -4.950000e+01
      vertex   -4.600000e+01 6.832454e+00 -4.650000e+01
      vertex   -5.050000e+01 6.832454e+00 -4.650000e+01
    endloop
  endfacet
  facet normal 0.000000e+00 -1.000000e+00 0.000000e+00
    outer loop
      vertex   -4.600000e+01 1.783245e+01 -4.950000e+01
      vertex   -4.000000e+01 1.783245e+01 -4.950000e+01
      vertex   -4.600000e+01 1.783245e+01 -4.650000e+01
    endloop
  endfacet
  facet normal 0.000000e+00 -1.000000e+00 0.000000e+00
    outer loop
      vertex   -4.600000e+01 1.783245e+01 -4.650000e+01
      vertex   -4.000000e+01 1.783245e+01 -4.950000e+01
      vertex   -4.000000e+01 1.783245e+01 -4.650000e+01
    endloop
  endfacet
  facet normal 0.000000e+00 1.000000e+00 -0.000000e+00
    outer loop
      vertex   -4.600000e+01 1.000000e+00 -4.950000e+01
      vertex   -4.750000e+01 1.000000e+00 -4.950000e+01
      vertex   -4.600000e+01 1.000000e+00 -4.650000e+01
    endloop
  endfacet
  facet normal 0.000000e+00 1.000000e+00 0.000000e+00
    outer loop
      vertex   -4.600000e+01 1.000000e+00 -4.650000e+01
      vertex   -4.750000e+01 1.000000e+00 -4.950000e+01
      vertex   -5.050000e+01 1.000000e+00 -4.650000e+01
    endloop
  endfacet
  facet normal 1.000000e+00 0.000000e+00 0.000000e+00
    outer loop
      vertex   -4.600000e+01 -1.000000e+01 -4.950000e+01
      vertex   -4.600000e+01 1.000000e+00 -4.950000e+01
      vertex   -4.600000e+01 -1.000000e+01 -4.650000e+01
    endloop
  endfacet
  facet normal 1.000000e+00 -0.000000e+00 0.000000e+00
    outer loop
      vertex   -4.600000e+01 -1.000000e+01 -4.650000e+01
      vertex   -4.600000e+01 1.000000e+00 -4.950000e+01
      vertex   -4.600000e+01 1.000000e+00 -4.650000e+01
    endloop
  endfacet
  facet normal 0.000000e+00 1.000000e+00 -0.000000e+00
    outer loop
      vertex   -4.000000e+01 -1.000000e+01 -4.950000e+01
      vertex   -4.600000e+01 -1.000000e+01 -4.950000e+01
      vertex   -4.000000e+01 -1.000000e+01 -4.650000e+01
    endloop
  endfacet
  facet normal 0.000000e+00 1.000000e+00 0.000000e+00
    outer loop
      vertex   -4.000000e+01 -1.000000e+01 -4.650000e+01
      vertex   -4.600000e+01 -1.000000e+01 -4.950000e+01
      vertex   -4.600000e+01 -1.000000e+01 -4.650000e+01
    endloop
  endfacet
  facet normal -1.000000e+00 0.000000e+00 0.000000e+00
    outer loop
      vertex   -4.000000e+01 1.783245e+01 -4.950000e+01
      vertex   -4.000000e+01 -1.000000e+01 -4.950000e+01
      vertex   -4.000000e+01 1.783245e+01 -4.650000e+01
    endloop
  endfacet
  facet normal -1.000000e+00 -0.000000e+00 0.000000e+00
    outer loop
      vertex   -4.000000e+01 1.783245e+01 -4.650000e+01
      vertex   -4.000000e+01 -1.000000e+01 -4.950000e+01
      vertex   -4.000000e+01 -1.000000e+01 -4.650000e+01
    endloop
  endfacet
  facet normal -1.000000e+00 0.000000e+00 0.000000e+00
    outer loop
      vertex   4.450000e+01 1.167546e+00 -4.950000e+01
      vertex   4.450000e+01 -9.832454e+00 -4.950000e+01
      vertex   4.450000e+01 1.167546e+00 -4.650000e+01
    endloop
  endfacet
  facet normal -1.000000e+00 -0.000000e+00 0.000000e+00
    outer loop
      vertex   4.450000e+01 1.167546e+00 -4.650000e+01
      vertex   4.450000e+01 -9.832454e+00 -4.950000e+01
      vertex   4.450000e+01 -9.832454e+00 -4.650000e+01
    endloop
  endfacet
  facet normal 5.551113e-16 1.000000e+00 -0.000000e+00
    outer loop
      vertex   4.450000e+01 1.167546e+00 -4.950000e+01
      vertex   4.450000e+01 1.167546e+00 -4.650000e+01
      vertex   4.650000e+01 1.167546e+00 -4.950000e+01
    endloop
  endfacet
  facet normal 1.332267e-16 1.000000e+00 -2.812565e-16
    outer loop
      vertex   4.650000e+01 1.167546e+00 -4.950000e+01
      vertex   4.450000e+01 1.167546e+00 -4.650000e+01
      vertex   4.950000e+01 1.167546e+00 -4.650000e+01
    endloop
  endfacet
  facet normal -1.776357e-16 -1.000000e+00 -1.184238e-16
    outer loop
      vertex   4.950000e+01 7.000000e+00 -4.650000e+01
      vertex   4.450000e+01 7.000000e+00 -4.650000e+01
      vertex   4.650000e+01 7.000000e+00 -4.950000e+01
    endloop
  endfacet
  facet normal 0.000000e+00 -1.000000e+00 0.000000e+00
    outer loop
      vertex   4.650000e+01 7.000000e+00 -4.950000e+01
      vertex   4.450000e+01 7.000000e+00 -4.650000e+01
      vertex   4.450000e+01 7.000000e+00 -4.950000e+01
    endloop
  endfacet
  facet normal 0.000000e+00 1.000000e+00 -0.000000e+00
    outer loop
      vertex   4.450000e+01 -9.832454e+00 -4.950000e+01
      vertex   3.850000e+01 -9.832454e+00 -4.950000e+01
      vertex   4.450000e+01 -9.832454e+00 -4.650000e+01
    endloop
  endfacet
  facet normal 0.000000e+00 1.000000e+00 0.000000e+00
    outer loop
      vertex   4.450000e+01 -9.832454e+00 -4.650000e+01
      vertex   3.850000e+01 -9.832454e+00 -4.950000e+01
      vertex   3.850000e+01 -9.832454e+00 -4.650000e+01
    endloop
  endfacet
  facet normal -1.000000e+00 0.000000e+00 0.000000e+00
    outer loop
      vertex   4.450000e+01 1.800000e+01 -4.950000e+01
      vertex   4.450000e+01 7.000000e+00 -4.950000e+01
      vertex   4.450000e+01 1.800000e+01 -4.650000e+01
    endloop
  endfacet
  facet normal -1.000000e+00 -0.000000e+00 0.000000e+00
    outer loop
      vertex   4.450000e+01 1.800000e+01 -4.650000e+01
      vertex   4.450000e+01 7.000000e+00 -4.950000e+01
      vertex   4.450000e+01 7.000000e+00 -4.650000e+01
    endloop
  endfacet
  facet normal 0.000000e+00 -1.000000e+00 0.000000e+00
    outer loop
      vertex   3.850000e+01 1.800000e+01 -4.950000e+01
      vertex   4.450000e+01 1.800000e+01 -4.950000e+01
      vertex   3.850000e+01 1.800000e+01 -4.650000e+01
    endloop
  endfacet
  facet normal 0.000000e+00 -1.000000e+00 0.000000e+00
    outer loop
      vertex   3.850000e+01 1.800000e+01 -4.650000e+01
      vertex   4.450000e+01 1.800000e+01 -4.950000e+01
      vertex   4.450000e+01 1.800000e+01 -4.650000e+01
    endloop
  endfacet
  facet normal 1.000000e+00 0.000000e+00 0.000000e+00
    outer loop
      vertex   3.850000e+01 -9.832454e+00 -4.950000e+01
      vertex   3.850000e+01 1.800000e+01 -4.950000e+01
      vertex   3.850000e+01 -9.832454e+00 -4.650000e+01
    endloop
  endfacet
  facet normal 1.000000e+00 -0.000000e+00 0.000000e+00
    outer loop
      vertex   3.850000e+01 -9.832454e+00 -4.650000e+01
      vertex   3.850000e+01 1.800000e+01 -4.950000e+01
      vertex   3.850000e+01 1.800000e+01 -4.650000e+01
    endloop
  endfacet
  facet normal -7.071068e-01 3.349531e-16 -7.071068e-01
    outer loop
      vertex   -5.050000e+01 1.000000e+00 -4.650000e+01
      vertex   -4.750000e+01 1.000000e+00 -4.950000e+01
      vertex   -5.050000e+01 -1.400000e+01 -4.650000e+01
    endloop
  endfacet
  facet normal -7.071068e-01 -6.699061e-16 -7.071068e-01
    outer loop
      vertex   -5.050000e+01 -1.400000e+01 -4.650000e+01
      vertex   -4.750000e+01 1.000000e+00 -4.950000e+01
      vertex   -4.750000e+01 -1.400000e+01 -4.950000e+01
    endloop
  endfacet
  facet normal -7.071068e-01 6.625061e-16 -7.071068e-01
    outer loop
      vertex   -4.750000e+01 6.832454e+00 -4.950000e+01
      vertex   -5.050000e+01 6.832454e+00 -4.650000e+01
      vertex   -4.750000e+01 2.200000e+01 -4.950000e+01
    endloop
  endfacet
  facet normal -7.071068e-01 -9.937591e-16 -7.071068e-01
    outer loop
      vertex   -4.750000e+01 2.200000e+01 -4.950000e+01
      vertex   -5.050000e+01 6.832454e+00 -4.650000e+01
      vertex   -5.050000e+01 2.200000e+01 -4.650000e+01
    endloop
  endfacet
  facet normal 0.000000e+00 -0.000000e+00 1.000000e+00
    outer loop
      vertex   -4.600000e+01 6.832454e+00 -4.650000e+01
      vertex   -4.600000e+01 1.783245e+01 -4.650000e+01
      vertex   -5.050000e+01 6.832454e+00 -4.650000e+01
    endloop
  endfacet
  facet normal 0.000000e+00 -0.000000e+00 1.000000e+00
    outer loop
      vertex   -5.050000e+01 6.832454e+00 -4.650000e+01
      vertex   -4.600000e+01 1.783245e+01 -4.650000e+01
      vertex   -5.050000e+01 2.200000e+01 -4.650000e+01
    endloop
  endfacet
  facet normal 0.000000e+00 0.000000e+00 1.000000e+00
    outer loop
      vertex   -5.050000e+01 2.200000e+01 -4.650000e+01
      vertex   -4.600000e+01 1.783245e+01 -4.650000e+01
      vertex   -4.000000e+01 1.783245e+01 -4.650000e+01
    endloop
  endfacet
  facet normal -0.000000e+00 0.000000e+00 1.000000e+00
    outer loop
      vertex   -5.050000e+01 2.200000e+01 -4.650000e+01
      vertex   -4.000000e+01 1.783245e+01 -4.650000e+01
      vertex   -1.545286e+01 2.200000e+01 -4.650000e+01
    endloop
  endfacet
  facet normal -4.290094e-16 2.526895e-15 1.000000e+00
    outer loop
      vertex   -1.545286e+01 2.200000e+01 -4.650000e+01
      vertex   -4.000000e+01 1.783245e+01 -4.650000e+01
      vertex   -1.545286e+01 1.637616e+01 -4.650000e+01
    endloop
  endfacet
  facet normal -5.789211e-16 0.000000e+00 1.000000e+00
    outer loop
      vertex   -1.545286e+01 1.637616e+01 -4.650000e+01
      vertex   -4.000000e+01 1.783245e+01 -4.650000e+01
      vertex   -1.545286e+01 -7.102581e+00 -4.650000e+01
    endloop
  endfacet
  facet normal 0.000000e+00 0.000000e+00 1.000000e+00
    outer loop
      vertex   -1.545286e+01 1.637616e+01 -4.650000e+01
      vertex   -1.545286e+01 -7.102581e+00 -4.650000e+01
      vertex   1.500000e+01 -7.102581e+00 -4.650000e+01
    endloop
  endfacet
  facet normal -5.789211e-16 0.000000e+00 1.000000e+00
    outer loop
      vertex   -4.000000e+01 1.783245e+01 -4.650000e+01
      vertex   -4.000000e+01 -1.000000e+01 -4.650000e+01
      vertex   -1.545286e+01 -7.102581e+00 -4.650000e+01
    endloop
  endfacet
  facet normal -5.789211e-16 0.000000e+00 1.000000e+00
    outer loop
      vertex   -1.545286e+01 -7.102581e+00 -4.650000e+01
      vertex   -4.000000e+01 -1.000000e+01 -4.650000e+01
      vertex   -1.545286e+01 -1.400000e+01 -4.650000e+01
    endloop
  endfacet
  facet normal 0.000000e+00 3.552713e-15 1.000000e+00
    outer loop
      vertex   -1.545286e+01 -1.400000e+01 -4.650000e+01
      vertex   -4.000000e+01 -1.000000e+01 -4.650000e+01
      vertex   -5.050000e+01 -1.400000e+01 -4.650000e+01
    endloop
  endfacet
  facet normal 0.000000e+00 3.552713e-15 1.000000e+00
    outer loop
      vertex   -5.050000e+01 -1.400000e+01 -4.650000e+01
      vertex   -4.000000e+01 -1.000000e+01 -4.650000e+01
      vertex   -4.600000e+01 -1.000000e+01 -4.650000e+01
    endloop
  endfacet
  facet normal 2.315843e-15 9.473903e-16 1.000000e+00
    outer loop
      vertex   -5.050000e+01 -1.400000e+01 -4.650000e+01
      vertex   -4.600000e+01 -1.000000e+01 -4.650000e+01
      vertex   -5.050000e+01 1.000000e+00 -4.650000e+01
    endloop
  endfacet
  facet normal -0.000000e+00 0.000000e+00 1.000000e+00
    outer loop
      vertex   -5.050000e+01 1.000000e+00 -4.650000e+01
      vertex   -4.600000e+01 -1.000000e+01 -4.650000e+01
      vertex   -4.600000e+01 1.000000e+00 -4.650000e+01
    endloop
  endfacet
  facet normal 6.047172e-16 -0.000000e+00 1.000000e+00
    outer loop
      vertex   1.500000e+01 -1.400000e+01 -4.650000e+01
      vertex   3.850000e+01 -9.832454e+00 -4.650000e+01
      vertex   1.500000e+01 -7.102581e+00 -4.650000e+01
    endloop
  endfacet
  facet normal 6.047172e-16 0.000000e+00 1.000000e+00
    outer loop
      vertex   1.500000e+01 -7.102581e+00 -4.650000e+01
      vertex   3.850000e+01 -9.832454e+00 -4.650000e+01
      vertex   3.850000e+01 1.800000e+01 -4.650000e+01
    endloop
  endfacet
  facet normal 6.047172e-16 -0.000000e+00 1.000000e+00
    outer loop
      vertex   1.500000e+01 -7.102581e+00 -4.650000e+01
      vertex   3.850000e+01 1.800000e+01 -4.650000e+01
      vertex   1.500000e+01 1.637616e+01 -4.650000e+01
    endloop
  endfacet
  facet normal 4.301099e-16 2.526895e-15 1.000000e+00
    outer loop
      vertex   1.500000e+01 1.637616e+01 -4.650000e+01
      vertex   3.850000e+01 1.800000e+01 -4.650000e+01
      vertex   1.500000e+01 2.200000e+01 -4.650000e+01
    endloop
  endfacet
  facet normal -0.000000e+00 0.000000e+00 1.000000e+00
    outer loop
      vertex   1.500000e+01 2.200000e+01 -4.650000e+01
      vertex   3.850000e+01 1.800000e+01 -4.650000e+01
      vertex   4.950000e+01 2.200000e+01 -4.650000e+01
    endloop
  endfacet
  facet normal 0.000000e+00 0.000000e+00 1.000000e+00
    outer loop
      vertex   4.950000e+01 2.200000e+01 -4.650000e+01
      vertex   3.850000e+01 1.800000e+01 -4.650000e+01
      vertex   4.450000e+01 1.800000e+01 -4.650000e+01
    endloop
  endfacet
  facet normal 0.000000e+00 0.000000e+00 1.000000e+00
    outer loop
      vertex   4.950000e+01 2.200000e+01 -4.650000e+01
      vertex   4.450000e+01 1.800000e+01 -4.650000e+01
      vertex   4.950000e+01 7.000000e+00 -4.650000e+01
    endloop
  endfacet
  facet normal 0.000000e+00 0.000000e+00 1.000000e+00
    outer loop
      vertex   4.950000e+01 7.000000e+00 -4.650000e+01
      vertex   4.450000e+01 1.800000e+01 -4.650000e+01
      vertex   4.450000e+01 7.000000e+00 -4.650000e+01
    endloop
  endfacet
  facet normal -0.000000e+00 3.409886e-15 1.000000e+00
    outer loop
      vertex   1.500000e+01 -1.400000e+01 -4.650000e+01
      vertex   4.950000e+01 -1.400000e+01 -4.650000e+01
      vertex   3.850000e+01 -9.832454e+00 -4.650000e+01
    endloop
  endfacet
  facet normal -0.000000e+00 3.409886e-15 1.000000e+00
    outer loop
      vertex   3.850000e+01 -9.832454e+00 -4.650000e+01
      vertex   4.950000e+01 -1.400000e+01 -4.650000e+01
      vertex   4.450000e+01 -9.832454e+00 -4.650000e+01
    endloop
  endfacet
  facet normal -2.061235e-15 9.369251e-16 1.000000e+00
    outer loop
      vertex   4.450000e+01 -9.832454e+00 -4.650000e+01
      vertex   4.950000e+01 -1.400000e+01 -4.650000e+01
      vertex   4.950000e+01 1.167546e+00 -4.650000e+01
    endloop
  endfacet
  facet normal 0.000000e+00 0.000000e+00 1.000000e+00
    outer loop
      vertex   4.450000e+01 -9.832454e+00 -4.650000e+01
      vertex   4.950000e+01 1.167546e+00 -4.650000e+01
      vertex   4.450000e+01 1.167546e+00 -4.650000e+01
    endloop
  endfacet
  facet normal 0.000000e+00 0.000000e+00 1.000000e+00
    outer loop
      vertex   1.500000e+01 1.637616e+01 -4.650000e+01
      vertex   -1.545286e+01 1.637616e+01 -4.650000e+01
      vertex   1.500000e+01 -7.102581e+00 -4.650000e+01
    endloop
  endfacet
  facet normal 7.071068e-01 -6.699061e-16 -7.071068e-01
    outer loop
      vertex   4.950000e+01 7.000000e+00 -4.650000e+01
      vertex   4.650000e+01 7.000000e+00 -4.950000e+01
      vertex   4.950000e+01 2.200000e+01 -4.650000e+01
    endloop
  endfacet
  facet normal 7.071068e-01 0.000000e+00 -7.071068e-01
    outer loop
      vertex   4.950000e+01 2.200000e+01 -4.650000e+01
      vertex   4.650000e+01 7.000000e+00 -4.950000e+01
      vertex   4.650000e+01 2.200000e+01 -4.950000e+01
    endloop
  endfacet
  facet normal 7.071068e-01 -9.937592e-16 -7.071068e-01
    outer loop
      vertex   4.650000e+01 1.167546e+00 -4.950000e+01
      vertex   4.950000e+01 1.167546e+00 -4.650000e+01
      vertex   4.650000e+01 -1.400000e+01 -4.950000e+01
    endloop
  endfacet
  facet normal 7.071068e-01 0.000000e+00 -7.071068e-01
    outer loop
      vertex   4.650000e+01 -1.400000e+01 -4.950000e+01
      vertex   4.950000e+01 1.167546e+00 -4.650000e+01
      vertex   4.950000e+01 -1.400000e+01 -4.650000e+01
    endloop
  endfacet
  facet normal 0.000000e+00 0.000000e+00 -1.000000e+00
    outer loop
      vertex   -4.600000e+01 6.832454e+00 -4.950000e+01
      vertex   -4.750000e+01 6.832454e+00 -4.950000e+01
      vertex   -4.600000e+01 1.783245e+01 -4.950000e+01
    endloop
  endfacet
  facet normal -0.000000e+00 0.000000e+00 -1.000000e+00
    outer loop
      vertex   -4.600000e+01 1.783245e+01 -4.950000e+01
      vertex   -4.750000e+01 6.832454e+00 -4.950000e+01
      vertex   -4.750000e+01 2.200000e+01 -4.950000e+01
    endloop
  endfacet
  facet normal 0.000000e+00 0.000000e+00 -1.000000e+00
    outer loop
      vertex   -4.600000e+01 1.783245e+01 -4.950000e+01
      vertex   -4.750000e+01 2.200000e+01 -4.950000e+01
      vertex   -4.000000e+01 1.783245e+01 -4.950000e+01
    endloop
  endfacet
  facet normal 0.000000e+00 0.000000e+00 -1.000000e+00
    outer loop
      vertex   -4.000000e+01 1.783245e+01 -4.950000e+01
      vertex   -4.750000e+01 2.200000e+01 -4.950000e+01
      vertex   3.850000e+01 1.800000e+01 -4.950000e+01
    endloop
  endfacet
  facet normal 0.000000e+00 0.000000e+00 -1.000000e+00
    outer loop
      vertex   -4.000000e+01 1.783245e+01 -4.950000e+01
      vertex   3.850000e+01 1.800000e+01 -4.950000e+01
      vertex   3.850000e+01 -9.832454e+00 -4.950000e+01
    endloop
  endfacet
  facet normal 0.000000e+00 0.000000e+00 -1.000000e+00
    outer loop
      vertex   -4.750000e+01 2.200000e+01 -4.950000e+01
      vertex   4.650000e+01 2.200000e+01 -4.950000e+01
      vertex   3.850000e+01 1.800000e+01 -4.950000e+01
    endloop
  endfacet
  facet normal 0.000000e+00 0.000000e+00 -1.000000e+00
    outer loop
      vertex   3.850000e+01 1.800000e+01 -4.950000e+01
      vertex   4.650000e+01 2.200000e+01 -4.950000e+01
      vertex   4.450000e+01 1.800000e+01 -4.950000e+01
    endloop
  endfacet
  facet normal 0.000000e+00 0.000000e+00 -1.000000e+00
    outer loop
      vertex   4.450000e+01 1.800000e+01 -4.950000e+01
      vertex   4.650000e+01 2.200000e+01 -4.950000e+01
      vertex   4.650000e+01 7.000000e+00 -4.950000e+01
    endloop
  endfacet
  facet normal 0.000000e+00 0.000000e+00 -1.000000e+00
    outer loop
      vertex   4.450000e+01 1.800000e+01 -4.950000e+01
      vertex   4.650000e+01 7.000000e+00 -4.950000e+01
      vertex   4.450000e+01 7.000000e+00 -4.950000e+01
    endloop
  endfacet
  facet normal -0.000000e+00 -3.409886e-15 -1.000000e+00
    outer loop
      vertex   4.450000e+01 -9.832454e+00 -4.950000e+01
      vertex   4.650000e+01 -1.400000e+01 -4.950000e+01
      vertex   3.850000e+01 -9.832454e+00 -4.950000e+01
    endloop
  endfacet
  facet normal 7.248162e-18 -3.395972e-15 -1.000000e+00
    outer loop
      vertex   3.850000e+01 -9.832454e+00 -4.950000e+01
      vertex   4.650000e+01 -1.400000e+01 -4.950000e+01
      vertex   -4.000000e+01 -1.000000e+01 -4.950000e+01
    endloop
  endfacet
  facet normal -0.000000e+00 0.000000e+00 -1.000000e+00
    outer loop
      vertex   3.850000e+01 -9.832454e+00 -4.950000e+01
      vertex   -4.000000e+01 -1.000000e+01 -4.950000e+01
      vertex   -4.000000e+01 1.783245e+01 -4.950000e+01
    endloop
  endfacet
  facet normal 0.000000e+00 0.000000e+00 -1.000000e+00
    outer loop
      vertex   4.450000e+01 1.167546e+00 -4.950000e+01
      vertex   4.650000e+01 1.167546e+00 -4.950000e+01
      vertex   4.450000e+01 -9.832454e+00 -4.950000e+01
    endloop
  endfacet
  facet normal 5.153086e-15 -9.369251e-16 -1.000000e+00
    outer loop
      vertex   4.450000e+01 -9.832454e+00 -4.950000e+01
      vertex   4.650000e+01 1.167546e+00 -4.950000e+01
      vertex   4.650000e+01 -1.400000e+01 -4.950000e+01
    endloop
  endfacet
  facet normal -0.000000e+00 -3.552713e-15 -1.000000e+00
    outer loop
      vertex   4.650000e+01 -1.400000e+01 -4.950000e+01
      vertex   -4.750000e+01 -1.400000e+01 -4.950000e+01
      vertex   -4.000000e+01 -1.000000e+01 -4.950000e+01
    endloop
  endfacet
  facet normal -0.000000e+00 -3.552713e-15 -1.000000e+00
    outer loop
      vertex   -4.000000e+01 -1.000000e+01 -4.950000e+01
      vertex   -4.750000e+01 -1.400000e+01 -4.950000e+01
      vertex   -4.600000e+01 -1.000000e+01 -4.950000e+01
    endloop
  endfacet
  facet normal -6.947526e-15 -9.473903e-16 -1.000000e+00
    outer loop
      vertex   -4.600000e+01 -1.000000e+01 -4.950000e+01
      vertex   -4.750000e+01 -1.400000e+01 -4.950000e+01
      vertex   -4.750000e+01 1.000000e+00 -4.950000e+01
    endloop
  endfacet
  facet normal 0.000000e+00 0.000000e+00 -1.000000e+00
    outer loop
      vertex   -4.600000e+01 -1.000000e+01 -4.950000e+01
      vertex   -4.750000e+01 1.000000e+00 -4.950000e+01
      vertex   -4.600000e+01 1.000000e+00 -4.950000e+01
    endloop
  endfacet
  facet normal -0.000000e+00 1.000000e+00 0.000000e+00
    outer loop
      vertex   -5.050000e+01 2.200000e+01 -4.650000e+01
      vertex   -1.545286e+01 2.200000e+01 -4.650000e+01
      vertex   -4.750000e+01 2.200000e+01 -4.950000e+01
    endloop
  endfacet
  facet normal 0.000000e+00 1.000000e+00 0.000000e+00
    outer loop
      vertex   -4.750000e+01 2.200000e+01 -4.950000e+01
      vertex   -1.545286e+01 2.200000e+01 -4.650000e+01
      vertex   4.650000e+01 2.200000e+01 -4.950000e+01
    endloop
  endfacet
  facet normal 0.000000e+00 1.000000e+00 0.000000e+00
    outer loop
      vertex   4.650000e+01 2.200000e+01 -4.950000e+01
      vertex   -1.545286e+01 2.200000e+01 -4.650000e+01
      vertex   1.500000e+01 2.200000e+01 -4.650000e+01
    endloop
  endfacet
  facet normal 0.000000e+00 1.000000e+00 -0.000000e+00
    outer loop
      vertex   4.650000e+01 2.200000e+01 -4.950000e+01
      vertex   1.500000e+01 2.200000e+01 -4.650000e+01
      vertex   4.950000e+01 2.200000e+01 -4.650000e+01
    endloop
  endfacet
  facet normal 0.000000e+00 1.000000e+00 -1.894781e-15
    outer loop
      vertex   -1.545286e+01 2.200000e+01 -3.150000e+01
      vertex   1.500000e+01 2.200000e+01 -3.150000e+01
      vertex   -1.545286e+01 2.200000e+01 -4.650000e+01
    endloop
  endfacet
  facet normal 0.000000e+00 1.000000e+00 -1.894781e-15
    outer loop
      vertex   -1.545286e+01 2.200000e+01 -4.650000e+01
      vertex   1.500000e+01 2.200000e+01 -3.150000e+01
      vertex   1.500000e+01 2.200000e+01 -4.650000e+01
    endloop
  endfacet
  facet normal 0.000000e+00 -1.000000e+00 1.657933e-15
    outer loop
      vertex   -1.545286e+01 1.637616e+01 -4.650000e+01
      vertex   1.500000e+01 1.637616e+01 -4.650000e+01
      vertex   -1.545286e+01 1.637616e+01 -3.150000e+01
    endloop
  endfacet
  facet normal 0.000000e+00 -1.000000e+00 1.657933e-15
    outer loop
      vertex   -1.545286e+01 1.637616e+01 -3.150000e+01
      vertex   1.500000e+01 1.637616e+01 -4.650000e+01
      vertex   1.500000e+01 1.637616e+01 -3.150000e+01
    endloop
  endfacet
  facet normal -1.000000e+00 0.000000e+00 0.000000e+00
    outer loop
      vertex   -1.545286e+01 2.200000e+01 -4.650000e+01
      vertex   -1.545286e+01 1.637616e+01 -4.650000e+01
      vertex   -1.545286e+01 2.200000e+01 -3.150000e+01
    endloop
  endfacet
  facet normal -1.000000e+00 -0.000000e+00 0.000000e+00
    outer loop
      vertex   -1.545286e+01 2.200000e+01 -3.150000e+01
      vertex   -1.545286e+01 1.637616e+01 -4.650000e+01
      vertex   -1.545286e+01 1.637616e+01 -3.150000e+01
    endloop
  endfacet
  facet normal 1.000000e+00 -0.000000e+00 0.000000e+00
    outer loop
      vertex   1.500000e+01 1.637616e+01 -4.650000e+01
      vertex   1.500000e+01 2.200000e+01 -4.650000e+01
      vertex   1.500000e+01 1.637616e+01 -3.150000e+01
    endloop
  endfacet
  facet normal 1.000000e+00 0.000000e+00 0.000000e+00
    outer loop
      vertex   1.500000e+01 1.637616e+01 -3.150000e+01
      vertex   1.500000e+01 2.200000e+01 -4.650000e+01
      vertex   1.500000e+01 2.200000e+01 -3.150000e+01
    endloop
  endfacet
  facet normal 0.000000e+00 1.895171e-15 1.000000e+00
    outer loop
      vertex   1.500000e+01 2.200000e+01 -3.150000e+01
      vertex   -1.545286e+01 2.200000e+01 -3.150000e+01
      vertex   1.500000e+01 1.637616e+01 -3.150000e+01
    endloop
  endfacet
  facet normal 0.000000e+00 1.895171e-15 1.000000e+00
    outer loop
      vertex   1.500000e+01 1.637616e+01 -3.150000e+01
      vertex   -1.545286e+01 2.200000e+01 -3.150000e+01
      vertex   -1.545286e+01 1.637616e+01 -3.150000e+01
    endloop
  endfacet
  facet normal -1.000000e+00 0.000000e+00 0.000000e+00
    outer loop
      vertex   -1.545286e+01 -7.102581e+00 -4.650000e+01
      vertex   -1.545286e+01 -1.400000e+01 -4.650000e+01
      vertex   -1.545286e+01 -7.102581e+00 -3.150000e+01
    endloop
  endfacet
  facet normal -1.000000e+00 -0.000000e+00 0.000000e+00
    outer loop
      vertex   -1.545286e+01 -7.102581e+00 -3.150000e+01
      vertex   -1.545286e+01 -1.400000e+01 -4.650000e+01
      vertex   -1.545286e+01 -1.400000e+01 -3.150000e+01
    endloop
  endfacet
  facet normal 0.000000e+00 1.000000e+00 -0.000000e+00
    outer loop
      vertex   1.500000e+01 -7.102581e+00 -4.650000e+01
      vertex   -1.545286e+01 -7.102581e+00 -4.650000e+01
      vertex   1.500000e+01 -7.102581e+00 -3.150000e+01
    endloop
  endfacet
  facet normal 0.000000e+00 1.000000e+00 0.000000e+00
    outer loop
      vertex   1.500000e+01 -7.102581e+00 -3.150000e+01
      vertex   -1.545286e+01 -7.102581e+00 -4.650000e+01
      vertex   -1.545286e+01 -7.102581e+00 -3.150000e+01
    endloop
  endfacet
  facet normal 1.000000e+00 0.000000e+00 0.000000e+00
    outer loop
      vertex   1.500000e+01 -1.400000e+01 -4.650000e+01
      vertex   1.500000e+01 -7.102581e+00 -4.650000e+01
      vertex   1.500000e+01 -1.400000e+01 -3.150000e+01
    endloop
  endfacet
  facet normal 1.000000e+00 -0.000000e+00 0.000000e+00
    outer loop
      vertex   1.500000e+01 -1.400000e+01 -3.150000e+01
      vertex   1.500000e+01 -7.102581e+00 -4.650000e+01
      vertex   1.500000e+01 -7.102581e+00 -3.150000e+01
    endloop
  endfacet
  facet normal 0.000000e+00 -1.000000e+00 0.000000e+00
    outer loop
      vertex   -5.050000e+01 -1.400000e+01 -4.650000e+01
      vertex   -4.750000e+01 -1.400000e+01 -4.950000e+01
      vertex   -1.545286e+01 -1.400000e+01 -4.650000e+01
    endloop
  endfacet
  facet normal 0.000000e+00 -1.000000e+00 -0.000000e+00
    outer loop
      vertex   -1.545286e+01 -1.400000e+01 -4.650000e+01
      vertex   -4.750000e+01 -1.400000e+01 -4.950000e+01
      vertex   4.650000e+01 -1.400000e+01 -4.950000e+01
    endloop
  endfacet
  facet normal 0.000000e+00 -1.000000e+00 0.000000e+00
    outer loop
      vertex   -1.545286e+01 -1.400000e+01 -4.650000e+01
      vertex   4.650000e+01 -1.400000e+01 -4.950000e+01
      vertex   1.500000e+01 -1.400000e+01 -4.650000e+01
    endloop
  endfacet
  facet normal 0.000000e+00 -1.000000e+00 0.000000e+00
    outer loop
      vertex   1.500000e+01 -1.400000e+01 -4.650000e+01
      vertex   4.650000e+01 -1.400000e+01 -4.950000e+01
      vertex   4.950000e+01 -1.400000e+01 -4.650000e+01
    endloop
  endfacet
  facet normal -0.000000e+00 -1.000000e+00 -0.000000e+00
    outer loop
      vertex   1.500000e+01 -1.400000e+01 -3.150000e+01
      vertex   -1.545286e+01 -1.400000e+01 -3.150000e+01
      vertex   1.500000e+01 -1.400000e+01 -4.650000e+01
    endloop
  endfacet
  facet normal 0.000000e+00 -1.000000e+00 0.000000e+00
    outer loop
      vertex   1.500000e+01 -1.400000e+01 -4.650000e+01
      vertex   -1.545286e+01 -1.400000e+01 -3.150000e+01
      vertex   -1.545286e+01 -1.400000e+01 -4.650000e+01
    endloop
  endfacet
  facet normal 0.000000e+00 0.000000e+00 1.000000e+00
    outer loop
      vertex   -1.545286e+01 -1.400000e+01 -3.150000e+01
      vertex   1.500000e+01 -1.400000e+01 -3.150000e+01
      vertex   -1.545286e+01 -7.102581e+00 -3.150000e+01
    endloop
  endfacet
  facet normal -0.000000e+00 0.000000e+00 1.000000e+00
    outer loop
      vertex   -1.545286e+01 -7.102581e+00 -3.150000e+01
      vertex   1.500000e+01 -1.400000e+01 -3.150000e+01
      vertex   1.500000e+01 -7.102581e+00 -3.150000e+01
    endloop
  endfacet
endsolid
